<svg width="152" height="152" viewBox="0 0 152 152" fill="none" xmlns="http://www.w3.org/2000/svg">
<g clip-path="url(#clip0_158_96)">
<mask id="mask0_158_96" style="mask-type:alpha" maskUnits="userSpaceOnUse" x="1" y="16" width="153" height="118">
<path d="M154 76.4754C135.5 119.975 117.511 133.475 72.5 133.475C26.5 122.475 39.5 132.475 1 89.9754C1 56.8384 22.5 14.4754 72.5 16.4754C117.511 16.4754 154 43.3384 154 76.4754Z" fill="#D9D9D9"/>
</mask>
<g mask="url(#mask0_158_96)">
<path d="M24.3997 113.722C24.9213 110.326 13.775 99.5005 16.8604 84.3643C19.1246 73.2561 26.9553 63.6042 32.1973 58.2801C30.9031 47.9567 28.1601 34.2 36.6398 29.2914C43.4235 25.3645 55.4996 36.625 60.6897 42.7462C65.7133 39.9796 80.4919 39.6634 87.2532 39.8512C90.2322 34.0499 98.4568 23.3062 107.522 26.7412C116.587 30.1763 115.965 43.4413 114.521 49.6444C116.486 50.2006 122.222 53.5753 129.45 62.6242C138.485 73.9354 134.927 91.722 135.065 97.2609C135.202 102.8 125.583 116.05 126.226 117.065C126.869 118.08 131.418 182.057 129.345 183.777C127.686 185.153 106.623 183.061 81.4919 174.035C79.5403 174.174 5.62048 146.786 4.44454 143.558C4.6093 135.095 23.1905 121.594 24.3997 113.722Z" fill="#CFCCE7"/>
<path d="M-2.26696 115.58C-5.03732 106.472 -15.3899 105.654 -18.5966 106.373L-27.2169 110.752L-30.9815 121.234L-30.7575 140.233L-20.921 143.766C-17.9938 144.026 -7.24261 146.116 -10.9153 139.66C-11.6785 138.319 -6.59851 133.047 -4.76614 130.649C-2.77877 129.421 0.503388 124.688 -2.26696 115.58Z" fill="#CFCCE7"/>
<path d="M50.0597 48.2836C53.9956 43.3322 41.5646 32.2868 41.1164 30.8313L45.3559 28.0386L58.0467 38.9615L57.8939 44.1929C56.6907 44.8395 56.3364 45.1654 64.5445 41.2952C72.7526 37.425 88.1977 42.9218 92.3963 45.1489C75.4896 42.9606 64.4548 46.9517 53.0018 53.0082C41.5487 59.0648 46.1238 53.235 50.0597 48.2836Z" fill="#ABA8D3"/>
<path d="M54.6756 98.8117C46.2506 120.167 64.5564 138.285 43.4339 160.151L78.5204 170.594L123.599 185.058C110.871 140.894 120.269 124.16 116.568 109.713C111.942 91.6535 98.7591 81.201 88.6496 78.1096C78.5402 75.0182 63.1006 77.4563 54.6756 98.8117Z" fill="white"/>
<path d="M29.4516 103.561C20.5031 87.9867 28.0143 67.8887 34.372 57.4531C34.7387 56.8513 34.4679 56.0611 33.8047 55.8229C33.3775 55.6695 32.9013 55.7933 32.6078 56.1396C28.047 61.5205 19.2452 72.8044 16.9417 79.2182C14.732 85.3706 16.7997 95.3796 18.3913 100.603C18.6305 101.388 18.9546 102.14 19.33 102.87C22.8901 109.791 21.1117 118.269 15.701 123.864C13.0189 126.638 10.1536 129.823 7.47522 133.211C3.10544 138.74 1.34425 142.022 0.80504 143.797C0.464052 144.919 1.30172 145.807 2.38824 146.249C4.54637 147.127 7.67306 147.829 9.83519 146.465C13.3223 144.266 18.5487 140.213 29.6987 137.417C34.7509 136.15 38.3352 116.395 35.1797 112.251C33.1695 109.612 31.2603 106.709 29.4516 103.561Z" fill="#ABA8D3"/>
<path d="M-14.7384 111.856C-15.8301 111.291 -15.1094 107.983 -14.6125 106.399L-10.359 107.172L-7.35029 109.008L-5.06232 112.85L-1.33629 118.396L-2.43043 126.849L-7.47938 135.5L-10.785 143.32C-11.8126 143.778 -14.2132 144.635 -15.5951 144.397C-17.3225 144.101 -18.401 139.777 -18.0767 134.068C-17.7523 128.358 -13.3393 127.786 -11.5715 120.761C-9.80377 113.736 -13.3737 112.562 -14.7384 111.856Z" fill="#ABA8D7"/>
<path d="M65.9954 70.2971L75.4049 67.5273L83.0427 66.3867L87.8205 68.1026C88.4066 70.0752 89.5499 74.161 89.4342 74.7236C89.3184 75.2861 86.4466 78.9368 85.0252 80.6918L79.1808 83.4474L68.8217 78.6482L65.6273 73.725L65.9954 70.2971Z" fill="#EFCFEC"/>
<path d="M78.829 77.8191C71.0277 74.9094 70.982 69.9304 70.8669 69.3496L64.8879 70.9782L64.2796 75.0749C67.7024 77.0594 74.9232 81.1847 76.4246 81.8102C77.9261 82.4358 81.5032 82.0879 83.1041 81.8358C84.2795 81.4668 85.07 80.1468 78.829 77.8191Z" fill="#DFA9DE"/>
<path d="M96.8612 42.3294C96.0698 38.7656 102.536 31.1341 105.868 27.7638L109.304 27.8109L113.181 36.5395C113.889 40.1742 114.227 47.7463 109.908 48.957C100.315 51.3372 97.8504 46.7842 96.8612 42.3294Z" fill="#EFCFEC"/>
<path d="M32.3609 50.6066C29.9513 47.8641 31.9441 38.062 33.2417 33.5037L36.0938 28.5959L46.0579 36.5976C48.4289 39.4421 50.189 46.9927 46.9869 50.1332C39.7251 56.8385 35.3729 54.0346 32.3609 50.6066Z" fill="#EFCFEC"/>
<path d="M104.829 43.5728C101.385 36.9418 108.11 30.8343 108.659 29.3054L101.702 31.5536L97.7553 42.5426C101.261 45.0963 107.584 48.8776 104.829 43.5728Z" fill="#D9A4DC"/>
<path d="M39.6896 45.2041C42.4396 38.2564 35.1273 32.8664 34.4252 31.4015L41.5749 32.9287L46.6215 43.4579C43.3942 46.3558 37.4896 50.7622 39.6896 45.2041Z" fill="#D9A4DC"/>
<path d="M130.724 87.7189C129.127 72.0417 116.862 55.6261 110.589 50.0646L115.205 50.428L124.152 57.9567L128.635 64.0978L133.801 74.0443L136.33 88.3299L132.855 106.716L127.475 117.191L120.634 120.02C121.903 116.987 131.953 99.7724 130.724 87.7189Z" fill="white"/>
<path d="M25.1001 115.376C23.2475 116.329 5.69829 133.652 2.31552 142.47" stroke="#2B4373" stroke-width="4.06128" stroke-linecap="round"/>
<path d="M-9.44577 142.777C-10.9942 141.682 -10.935 139.114 -5.97956 133.126C-1.02414 127.138 0.645369 121.589 -3.19305 113.953C-6.26378 107.844 -11.5661 106.127 -13.8334 106.032C-16.3286 105.104 -22.4346 105.284 -26.8974 113.429C-32.4759 123.61 -32.9954 134.731 -30.2288 139.355" stroke="#2B4373" stroke-width="4.06128" stroke-linecap="round"/>
<path d="M65.0808 73.7443C63.6954 69.0881 72.9857 67.0538 77.0932 66.7309C81.2008 66.4082 89.4807 65.4622 89.4839 69.7786C89.488 75.1742 85.439 82.2427 80.1585 82.8275C74.8781 83.4123 66.3029 77.8512 65.0808 73.7443Z" stroke="#8F4683" stroke-width="4.06128" stroke-linecap="round"/>
<path d="M80.3762 83.1215C81.3385 87.3509 83.1808 96.0389 82.8513 96.9562" stroke="#8F4683" stroke-width="4.06128" stroke-linecap="round"/>
<path d="M55.9185 44.886C58.7857 43.1108 65.5725 39.8737 72.8999 39.6573C82.0591 39.3867 88.1134 41.4532 91.3132 43.3576" stroke="#2B4373" stroke-width="4.06128" stroke-linecap="round"/>
<path d="M84.72 40.9896C87.8181 34.7663 96.4308 23.1014 106.096 26.2275C115.762 29.3536 114.394 42.8728 112.503 49.2416" stroke="#2B4373" stroke-width="4.06128" stroke-linecap="round"/>
<path d="M60.4715 42.4216C55.6798 35.7381 43.836 23.7386 34.7945 29.2081C30.6543 31.7127 29.7686 48.0084 32.9945 54.3454" stroke="#2B4373" stroke-width="4.06128" stroke-linecap="round"/>
<path d="M35.0247 30.3696C38.4259 29.1098 46.3273 30.7393 50.7235 47.3354" stroke="#2B4373" stroke-width="4.06128" stroke-linecap="round"/>
<path d="M107.595 28.0605C104.577 28.0551 98.2094 31.486 96.89 45.2525" stroke="#2B4373" stroke-width="4.06128" stroke-linecap="round"/>
<path fill-rule="evenodd" clip-rule="evenodd" d="M40.4068 41.6073C40.1897 38.7752 41.048 36.469 42.7255 35.9449C44.9534 35.249 47.7825 37.9599 49.0445 41.9999C50.276 45.942 49.5604 49.693 47.4552 50.5191C45.8712 51.328 43.3768 51.2771 40.9247 50.2257C37.4388 48.7311 35.3586 45.7804 36.2784 43.6353C36.8498 42.3025 38.4447 41.5943 40.4068 41.6073Z" fill="white"/>
<path d="M100.263 73.6109C99.788 73.3764 99.3092 73.1513 98.8446 72.9065C96.9394 71.9 96.2949 70.1739 96.2756 68.1765C96.2531 65.7247 98.4793 63.3721 100.565 63.0764C102.808 62.7591 105.486 63.4377 106.432 65.9309C106.992 67.4104 107.409 68.9594 106.974 70.5952C106.316 73.0788 103.55 74.7347 100.841 73.7866C100.653 73.719 100.465 73.6514 100.277 73.5838C100.273 73.5932 100.27 73.6026 100.262 73.614L100.263 73.6109Z" fill="#040302"/>
<path d="M48.6307 80.4823C45.3554 79.2756 44.5742 75.8596 45.2482 73.0953C46.8067 69.9502 49.4111 68.2474 53.3354 69.634C56.1309 70.6228 57.4908 74.129 56.4695 76.7192C55.1024 80.1874 52.6292 81.7362 48.634 80.4835L48.6307 80.4823Z" fill="#040302"/>
<path fill-rule="evenodd" clip-rule="evenodd" d="M98.8207 47.1966C98.8167 47.1929 98.8127 47.1891 98.8086 47.1853C97.0294 45.5131 97.8218 41.7796 100.579 38.8463C103.335 35.913 107.013 34.8906 108.792 36.5628C110.027 37.724 110.023 39.879 108.982 42.0699C110.755 42.9079 111.881 44.2199 111.815 45.6431C111.707 47.949 108.511 49.6735 104.676 49.4949C102.152 49.3773 99.9799 48.4645 98.8207 47.1966Z" fill="white"/>
<path d="M80.1451 121.013C84.2305 121.653 90.9378 126.227 94.7693 131.659" stroke="white" stroke-width="4.06128" stroke-linecap="round"/>
<path d="M38.4842 97.6357C38.6421 95.8943 39.7567 92.5907 40.8522 91.0423" stroke="#ABA8D7" stroke-width="2.03064" stroke-linecap="round"/>
<path d="M41.7778 97.0907C41.7544 95.933 42.0665 95.155 42.4175 94.4092" stroke="#ABA8D7" stroke-width="1.34473" stroke-linecap="round"/>
<path d="M84.8829 72.37C85.6911 70.4137 82.6079 69.7675 80.8368 70.1255C79.9119 70.3124 79.3641 70.6446 78.7707 71.3782C77.2499 73.2584 83.8726 74.8152 84.8829 72.37Z" fill="white"/>
</g>
<path d="M109.349 48.109C115.327 50.6876 128.467 59.3985 133.201 73.6129C137.935 87.8273 138.121 105.844 125.554 118.334C120.67 123.189 91 142.975 44.5 128.475" stroke="#2B4373" stroke-width="4.06128" stroke-linecap="round"/>
<path d="M38.2707 52.5722C29.8826 57.0035 13.7785 75.1694 16.9101 93.1237C20.8246 115.566 33.6605 125.014 44.5 128.475" stroke="#2B4373" stroke-width="4.06128" stroke-linecap="round"/>
<path d="M28.1249 92.8361L6.90413 100.858" stroke="#8F4683" stroke-width="4.06128" stroke-linecap="round"/>
<path d="M33.2594 101.369L15.507 117.756" stroke="#8F4683" stroke-width="4.06128" stroke-linecap="round"/>
<path d="M117.673 64.5836C118.378 64.0603 130.823 52.8006 136.957 47.2361" stroke="#8F4683" stroke-width="4.06128" stroke-linecap="round"/>
<path d="M120.675 73.6452L146 67.9754" stroke="#8F4683" stroke-width="4.06128" stroke-linecap="round"/>
<path d="M122.181 83.5717L147 89.4754" stroke="#8F4683" stroke-width="4.06128" stroke-linecap="round"/>
<path d="M29.4128 82.9421C28.5935 82.8204 14.0086 83.3791 6.81857 83.6737" stroke="#8F4683" stroke-width="4.06128" stroke-linecap="round"/>
</g>
<defs>
<clipPath id="clip0_158_96">
<rect width="152" height="152" fill="white"/>
</clipPath>
</defs>
</svg>
